<svg width="21" height="21" viewBox="0 0 21 21" fill="black" xmlns="http://www.w3.org/2000/svg">
<path d="M18.3496 7.75391C18.3496 5.47808 16.539 3.65157 14.3271 3.65039C13.0527 3.69581 11.8468 4.26152 10.9834 5.22363L10.5 5.7627L10.0166 5.22363C9.15298 4.26128 7.94664 3.69555 6.67188 3.65039C4.46051 3.65211 2.65039 5.47841 2.65039 7.75391C2.65054 9.21644 3.53688 10.8495 4.77051 12.4326C5.98918 13.9966 7.43796 15.3815 8.41309 16.373L10.3477 18.3389H10.6523L12.5869 16.373C13.562 15.3815 15.0108 13.9966 16.2295 12.4326C17.4631 10.8495 18.3495 9.21644 18.3496 7.75391ZM19.6504 7.75391C19.6502 9.67903 18.5179 11.6106 17.2549 13.2314C15.9767 14.8717 14.4511 16.3311 13.5137 17.2842L11.5752 19.2539C11.3348 19.4986 11.007 19.6384 10.6621 19.6387H10.3379C9.99303 19.6384 9.66418 19.4996 9.42383 19.2549L7.48633 17.2842C6.54894 16.3311 5.02326 14.8717 3.74512 13.2314C2.48215 11.6106 1.34976 9.67903 1.34961 7.75391C1.34961 4.77994 3.72381 2.34972 6.6748 2.34961H6.68555L6.69531 2.35059C8.10748 2.39533 9.45039 2.93935 10.5 3.87402C11.5496 2.93935 12.8925 2.39533 14.3047 2.35059L14.3145 2.34961H14.3252C17.2762 2.34972 19.6504 4.77994 19.6504 7.75391Z"/>
</svg>