<svg width="21" height="21" viewBox="0 0 21 21" fill="none" xmlns="http://www.w3.org/2000/svg" fill="black" stroke="white">
<path fill-rule="evenodd" clip-rule="evenodd" d="M4 18H9.5C9.77614 18 10 18.2239 10 18.5V19.5C10 19.7761 9.77614 20 9.5 20H4C2.89543 20 2 19.1046 2 18V4C2 2.89543 2.89543 2 4 2H9.5C9.77614 2 10 2.22386 10 2.5V3.5C10 3.77614 9.77614 4 9.5 4H4V18ZM14.64 5.15L19.78 10.28C19.9189 10.4217 19.9977 10.6116 20 10.81V11.19C19.9998 11.3888 19.9207 11.5795 19.78 11.72L14.64 16.85C14.5461 16.9447 14.4183 16.9979 14.285 16.9979C14.1517 16.9979 14.0239 16.9447 13.93 16.85L13.22 16.15C13.1253 16.0561 13.0721 15.9283 13.0721 15.795C13.0721 15.6617 13.1253 15.5339 13.22 15.44L16.67 12H6.5C6.22386 12 6 11.7761 6 11.5V10.5C6 10.2239 6.22386 10 6.5 10H16.67L13.22 6.56C13.1259 6.46784 13.0729 6.34169 13.0729 6.21C13.0729 6.07831 13.1259 5.95216 13.22 5.86L13.93 5.15C14.0239 5.05534 14.1517 5.0021 14.285 5.0021C14.4183 5.0021 14.5461 5.05534 14.64 5.15Z"/>
</svg>