<svg width="21" height="21" viewBox="0 0 21 21" fill="black" xmlns="http://www.w3.org/2000/svg">
<path fill-rule="evenodd" clip-rule="evenodd" d="M14.0812 13C15.803 13.0001 17.3776 13.9713 18.1495 15.5098L20.0401 19.3008L20.0411 19.3027C20.1267 19.4729 20.1183 19.6756 20.0187 19.8379C19.9189 20.0001 19.7415 20.099 19.5509 20.0996H1.54894C1.35832 20.099 1.18092 20.0001 1.08116 19.8379C0.981537 19.6756 0.973127 19.4728 1.0587 19.3027L1.05968 19.3008L2.94933 15.5098C3.72113 13.9711 5.29666 13.0002 7.01866 13H14.0812ZM7.01866 14.0996C5.71263 14.1014 4.51909 14.8405 3.93565 16.0088L2.43956 19H18.6603L17.1642 16.0088C16.5808 14.8407 15.388 14.1016 14.0821 14.0996H7.01866Z"/>
<path fill-rule="evenodd" clip-rule="evenodd" d="M10.5499 1C13.0638 1 15.1017 3.03704 15.1017 5.5498C15.1017 8.06257 13.0638 10.0996 10.5499 10.0996C8.03613 10.0995 5.99815 8.06252 5.99815 5.5498C5.99815 3.03709 8.03613 1.00009 10.5499 1ZM10.5499 2.09961C8.64427 2.09974 7.09874 3.64437 7.09874 5.5498C7.09875 7.45523 8.64427 8.99987 10.5499 9C12.4557 9 14.0011 7.45531 14.0011 5.5498C14.0011 3.64429 12.4557 2.09961 10.5499 2.09961Z"/>
</svg>
