<svg viewBox="0 0 18 18" fill="none" stroke="black" xmlns="http://www.w3.org/2000/svg">
<path d="M9 1C9.16418 1 9.3101 1.08342 9.3916 1.21387L9.42188 1.27246L11.4756 6.00977L11.5938 6.28223L11.8896 6.30859L17.0859 6.77344C17.2711 6.79001 17.4225 6.91332 17.4775 7.08008C17.5324 7.24694 17.4829 7.42898 17.3467 7.54688L13.4189 10.9414L13.1914 11.1387L13.2588 11.4326L14.417 16.459C14.4561 16.6303 14.3895 16.808 14.2422 16.9131H14.2412C14.0918 17.0197 13.8922 17.029 13.7334 16.9355L9.25391 14.2949L9 14.1455L8.74609 14.2949L4.26562 16.9355C4.19292 16.9784 4.1113 16.9999 4.0293 17C3.93326 17 3.83857 16.9712 3.75879 16.9141L3.75781 16.9131C3.62889 16.8212 3.5618 16.6736 3.57324 16.5234L3.58301 16.459L4.74121 11.4326L4.80859 11.1387L4.58105 10.9414L0.65332 7.54688C0.517336 7.42927 0.467273 7.24681 0.521484 7.08105C0.577145 6.91364 0.729484 6.79035 0.915039 6.77344L0.914062 6.77246L6.11133 6.30859L6.40723 6.28223L6.52539 6.00977L8.5791 1.27148C8.64928 1.10931 8.81215 1 9 1Z"/>
</svg>