<svg width="21" height="21" viewBox="0 0 21 21" fill="black" xmlns="http://www.w3.org/2000/svg">
<path d="M6.76598 13.5765C6.76678 13.5765 6.76854 13.5763 6.76934 13.5763H17.9238C18.1984 13.5763 18.4399 13.3941 18.5153 13.1301L20.9763 4.51681C21.0293 4.33112 20.9921 4.13148 20.876 3.97736C20.7597 3.82323 20.5778 3.73254 20.3848 3.73254H5.34709L4.90729 1.75338C4.84465 1.47188 4.59503 1.27161 4.30664 1.27161H0.615234C0.275413 1.27161 0 1.54702 0 1.88684C0 2.22666 0.275413 2.50208 0.615234 2.50208H3.81317C3.89104 2.85279 5.91779 11.9733 6.03442 12.498C5.38058 12.7823 4.92187 13.4342 4.92187 14.1915C4.92187 15.2092 5.74988 16.0372 6.76758 16.0372H17.9238C18.2636 16.0372 18.5391 15.7618 18.5391 15.422C18.5391 15.0822 18.2636 14.8068 17.9238 14.8068H6.76758C6.4284 14.8068 6.15234 14.5307 6.15234 14.1915C6.15234 13.8528 6.42744 13.5773 6.76598 13.5765ZM19.5691 4.96301L17.4597 12.3458H7.26105L5.62042 4.96301H19.5691Z"/>
<path d="M6.15233 17.8827C6.15233 18.9004 6.98034 19.7284 7.99804 19.7284C9.01574 19.7284 9.84374 18.9004 9.84374 17.8827C9.84374 16.865 9.01574 16.037 7.99804 16.037C6.98034 16.037 6.15233 16.865 6.15233 17.8827ZM7.99804 17.2675C8.33722 17.2675 8.61327 17.5435 8.61327 17.8827C8.61327 18.2219 8.33722 18.498 7.99804 18.498C7.65886 18.498 7.3828 18.2219 7.3828 17.8827C7.3828 17.5435 7.65886 17.2675 7.99804 17.2675Z"/>
<path d="M14.8476 17.8827C14.8476 18.9004 15.6756 19.7284 16.6933 19.7284C17.711 19.7284 18.539 18.9004 18.539 17.8827C18.539 16.865 17.711 16.037 16.6933 16.037C15.6756 16.037 14.8476 16.865 14.8476 17.8827ZM16.6933 17.2675C17.0325 17.2675 17.3086 17.5435 17.3086 17.8827C17.3086 18.2219 17.0325 18.498 16.6933 18.498C16.3541 18.498 16.0781 18.2219 16.0781 17.8827C16.0781 17.5435 16.3541 17.2675 16.6933 17.2675Z"/>
</svg>